<svg xmlns="http://www.w3.org/2000/svg" xmlns:xlink="http://www.w3.org/1999/xlink" width="500" zoomAndPan="magnify" viewBox="0 0 375 374.999991" height="500" preserveAspectRatio="xMidYMid meet" version="1.0"><defs><g/><clipPath id="16ffe6dc17"><path d="M 157.214844 132 L 178 132 L 178 162 L 157.214844 162 Z M 157.214844 132 " clip-rule="nonzero"/></clipPath><clipPath id="d1346eb5cf"><path d="M 157.214844 131 L 179 131 L 179 163 L 157.214844 163 Z M 157.214844 131 " clip-rule="nonzero"/></clipPath><clipPath id="152cfa39fe"><path d="M 197 132 L 217.964844 132 L 217.964844 162 L 197 162 Z M 197 132 " clip-rule="nonzero"/></clipPath><clipPath id="5495446c7c"><path d="M 196 131 L 217.964844 131 L 217.964844 163 L 196 163 Z M 196 131 " clip-rule="nonzero"/></clipPath><clipPath id="a60a258736"><path d="M 177 123.375 L 198 123.375 L 198 170.625 L 177 170.625 Z M 177 123.375 " clip-rule="nonzero"/></clipPath></defs><g clip-path="url(#16ffe6dc17)"><path fill="#03fa6e" d="M 176.378906 161.898438 C 176.042969 161.898438 175.714844 161.785156 175.449219 161.574219 L 158.460938 148.183594 C 158.09375 147.894531 157.886719 147.464844 157.886719 147 C 157.886719 146.535156 158.09375 146.101562 158.460938 145.8125 L 175.449219 132.421875 C 175.714844 132.214844 176.042969 132.101562 176.378906 132.101562 C 176.84375 132.101562 177.277344 132.308594 177.5625 132.675781 C 177.808594 132.992188 177.921875 133.386719 177.875 133.785156 C 177.828125 134.183594 177.625 134.542969 177.3125 134.792969 L 161.828125 147 L 177.3125 159.203125 C 177.625 159.457031 177.828125 159.8125 177.875 160.210938 C 177.921875 160.613281 177.808594 161.003906 177.5625 161.324219 C 177.277344 161.6875 176.84375 161.898438 176.378906 161.898438 " fill-opacity="1" fill-rule="nonzero"/></g><g clip-path="url(#d1346eb5cf)"><path fill="#03fa6e" d="M 176.378906 131.457031 C 175.902344 131.457031 175.433594 131.621094 175.054688 131.917969 L 158.0625 145.308594 C 157.542969 145.722656 157.246094 146.335938 157.246094 147 C 157.246094 147.660156 157.542969 148.277344 158.0625 148.6875 L 175.054688 162.082031 C 175.429688 162.375 175.902344 162.539062 176.378906 162.539062 C 177.042969 162.539062 177.660156 162.238281 178.066406 161.71875 C 178.421875 161.269531 178.578125 160.707031 178.511719 160.136719 C 178.445312 159.566406 178.160156 159.054688 177.707031 158.699219 L 162.863281 147 L 177.707031 135.296875 C 178.160156 134.941406 178.445312 134.429688 178.511719 133.863281 C 178.578125 133.292969 178.421875 132.730469 178.066406 132.277344 C 177.660156 131.753906 177.042969 131.457031 176.378906 131.457031 Z M 176.378906 132.742188 C 176.636719 132.742188 176.890625 132.855469 177.058594 133.070312 C 177.355469 133.449219 177.289062 133.992188 176.914062 134.289062 L 160.789062 147 L 176.914062 159.710938 C 177.289062 160.003906 177.355469 160.550781 177.058594 160.925781 C 176.890625 161.144531 176.636719 161.257812 176.378906 161.257812 C 176.191406 161.257812 176.007812 161.195312 175.847656 161.070312 L 158.855469 147.679688 C 158.648438 147.515625 158.527344 147.261719 158.527344 147 C 158.527344 146.730469 158.648438 146.484375 158.855469 146.320312 L 175.847656 132.925781 C 176.003906 132.800781 176.191406 132.742188 176.378906 132.742188 " fill-opacity="1" fill-rule="nonzero"/></g><g clip-path="url(#152cfa39fe)"><path fill="#03fa6e" d="M 198.796875 161.898438 C 198.332031 161.898438 197.902344 161.6875 197.613281 161.324219 C 197.101562 160.671875 197.214844 159.71875 197.867188 159.203125 L 213.351562 147 L 197.867188 134.792969 C 197.214844 134.277344 197.101562 133.328125 197.613281 132.675781 C 197.902344 132.308594 198.332031 132.101562 198.796875 132.101562 C 199.132812 132.101562 199.464844 132.214844 199.726562 132.421875 L 216.71875 145.8125 C 217.082031 146.101562 217.289062 146.535156 217.289062 147 C 217.289062 147.464844 217.082031 147.894531 216.714844 148.183594 L 199.726562 161.574219 C 199.464844 161.785156 199.132812 161.898438 198.796875 161.898438 " fill-opacity="1" fill-rule="nonzero"/></g><g clip-path="url(#5495446c7c)"><path fill="#03fa6e" d="M 198.796875 131.457031 C 198.136719 131.457031 197.519531 131.753906 197.109375 132.277344 C 196.378906 133.210938 196.539062 134.5625 197.46875 135.296875 L 212.316406 147 L 197.46875 158.703125 C 196.539062 159.433594 196.378906 160.789062 197.109375 161.71875 C 197.519531 162.238281 198.136719 162.539062 198.796875 162.539062 C 199.277344 162.539062 199.746094 162.375 200.121094 162.082031 L 217.113281 148.6875 C 217.632812 148.277344 217.929688 147.660156 217.929688 147 C 217.929688 146.335938 217.632812 145.722656 217.117188 145.308594 L 200.125 131.917969 C 199.75 131.621094 199.277344 131.457031 198.796875 131.457031 Z M 198.796875 132.742188 C 198.984375 132.742188 199.175781 132.800781 199.332031 132.925781 L 216.320312 146.320312 C 216.527344 146.484375 216.648438 146.730469 216.648438 147 C 216.648438 147.261719 216.527344 147.515625 216.320312 147.679688 L 199.332031 161.070312 C 199.175781 161.195312 198.984375 161.257812 198.796875 161.257812 C 198.539062 161.257812 198.289062 161.144531 198.117188 160.925781 C 197.824219 160.550781 197.886719 160.003906 198.261719 159.710938 L 214.386719 147 L 198.261719 134.289062 C 197.886719 133.992188 197.824219 133.449219 198.117188 133.070312 C 198.289062 132.855469 198.542969 132.742188 198.796875 132.742188 " fill-opacity="1" fill-rule="nonzero"/></g><path fill="#03fa6e" d="M 179.144531 169.980469 C 178.957031 169.980469 178.777344 169.945312 178.601562 169.875 C 178.226562 169.730469 177.929688 169.449219 177.769531 169.082031 C 177.605469 168.710938 177.597656 168.300781 177.742188 167.929688 L 194.335938 124.980469 C 194.558594 124.40625 195.121094 124.019531 195.738281 124.019531 C 195.925781 124.019531 196.109375 124.054688 196.28125 124.121094 C 197.054688 124.421875 197.441406 125.296875 197.140625 126.074219 L 180.550781 169.015625 C 180.328125 169.589844 179.761719 169.980469 179.144531 169.980469 " fill-opacity="1" fill-rule="nonzero"/><g clip-path="url(#a60a258736)"><path fill="#03fa6e" d="M 195.738281 123.375 C 194.859375 123.375 194.054688 123.929688 193.738281 124.75 L 177.144531 167.695312 C 176.9375 168.230469 176.953125 168.8125 177.183594 169.339844 C 177.414062 169.863281 177.835938 170.269531 178.371094 170.476562 C 178.621094 170.574219 178.878906 170.621094 179.144531 170.621094 C 180.023438 170.621094 180.828125 170.070312 181.148438 169.246094 L 197.738281 126.304688 C 198.167969 125.199219 197.617188 123.949219 196.511719 123.523438 C 196.265625 123.425781 196.003906 123.375 195.738281 123.375 Z M 195.738281 124.660156 C 195.84375 124.660156 195.945312 124.679688 196.050781 124.71875 C 196.496094 124.890625 196.714844 125.390625 196.542969 125.839844 L 179.949219 168.78125 C 179.820312 169.128906 179.492188 169.335938 179.144531 169.335938 C 179.039062 169.335938 178.9375 169.320312 178.832031 169.277344 C 178.386719 169.105469 178.167969 168.601562 178.339844 168.160156 L 194.933594 125.214844 C 195.066406 124.871094 195.390625 124.660156 195.738281 124.660156 " fill-opacity="1" fill-rule="nonzero"/></g><g fill="#ffffff" fill-opacity="1"><g transform="translate(67.26152, 216.116295)"><g><path d="M 8.738281 0 L 8.738281 -14.289062 L 23.15625 -14.289062 L 23.15625 -20.046875 L 8.738281 -20.046875 L 8.738281 -27.503906 L 24.605469 -27.503906 L 24.605469 -33.59375 L 2.277344 -33.59375 L 2.277344 0 Z M 8.738281 0 "/></g></g></g><g fill="#ffffff" fill-opacity="1"><g transform="translate(91.695415, 216.116295)"><g><path d="M 26.304688 -11.101562 C 26.304688 -19.59375 21.664062 -24.730469 14.042969 -24.730469 C 6.503906 -24.730469 1.65625 -19.511719 1.65625 -12.09375 L 1.65625 -12.054688 C 1.65625 -4.515625 6.835938 0.621094 14.828125 0.621094 C 19.46875 0.621094 22.742188 -0.828125 25.144531 -2.320312 L 22.285156 -7.414062 C 20.546875 -6.171875 18.019531 -5.136719 15.121094 -5.136719 C 11.515625 -5.136719 9.15625 -7.457031 8.492188 -10.519531 L 26.304688 -10.519531 Z M 14 -19.386719 C 17.191406 -19.386719 19.097656 -17.316406 19.59375 -14.582031 L 8.53125 -14.582031 C 9.15625 -17.316406 11.144531 -19.386719 14 -19.386719 Z M 14 -19.386719 "/></g></g></g><g fill="#ffffff" fill-opacity="1"><g transform="translate(118.117183, 216.116295)"><g><path d="M 8.824219 0 L 8.824219 -33.59375 L 2.238281 -33.59375 L 2.238281 0 Z M 8.824219 0 "/></g></g></g><g fill="#ffffff" fill-opacity="1"><g transform="translate(127.600621, 216.116295)"><g><path d="M 5.507812 -26.882812 C 7.332031 -26.882812 8.78125 -27.792969 8.78125 -29.78125 C 8.78125 -31.5625 7.457031 -32.640625 5.507812 -32.640625 C 3.605469 -32.640625 2.238281 -31.5625 2.238281 -29.78125 C 2.238281 -27.792969 3.726562 -26.882812 5.507812 -26.882812 Z M 8.824219 0 L 8.824219 -23.777344 L 2.238281 -23.777344 L 2.238281 0 Z M 8.824219 0 "/></g></g></g><g fill="#ffffff" fill-opacity="1"><g transform="translate(137.084059, 216.116295)"><g><path d="M 8.824219 9.113281 L 8.824219 -0.0429688 C 10.273438 0.332031 11.804688 0.621094 13.339844 0.621094 C 21.414062 0.621094 26.261719 -4.722656 26.261719 -11.972656 L 26.261719 -12.054688 C 26.261719 -19.34375 21.167969 -24.730469 13.046875 -24.730469 C 8.617188 -24.730469 5.09375 -23.609375 2.238281 -22.449219 L 2.238281 9.113281 Z M 13.046875 -5.261719 C 11.640625 -5.261719 10.105469 -5.59375 8.824219 -5.921875 L 8.824219 -18.351562 C 10.105469 -18.679688 11.515625 -18.847656 13.046875 -18.847656 C 17.398438 -18.847656 19.632812 -15.90625 19.632812 -12.054688 L 19.632812 -11.972656 C 19.632812 -8.160156 17.398438 -5.261719 13.046875 -5.261719 Z M 13.046875 -5.261719 "/></g></g></g><g fill="#ffffff" fill-opacity="1"><g transform="translate(163.464417, 216.116295)"><g><path d="M 26.304688 -11.101562 C 26.304688 -19.59375 21.664062 -24.730469 14.042969 -24.730469 C 6.503906 -24.730469 1.65625 -19.511719 1.65625 -12.09375 L 1.65625 -12.054688 C 1.65625 -4.515625 6.835938 0.621094 14.828125 0.621094 C 19.46875 0.621094 22.742188 -0.828125 25.144531 -2.320312 L 22.285156 -7.414062 C 20.546875 -6.171875 18.019531 -5.136719 15.121094 -5.136719 C 11.515625 -5.136719 9.15625 -7.457031 8.492188 -10.519531 L 26.304688 -10.519531 Z M 14 -19.386719 C 17.191406 -19.386719 19.097656 -17.316406 19.59375 -14.582031 L 8.53125 -14.582031 C 9.15625 -17.316406 11.144531 -19.386719 14 -19.386719 Z M 14 -19.386719 "/></g></g></g><g fill="#ffffff" fill-opacity="1"><g transform="translate(189.886191, 216.116295)"><g/></g></g><g fill="#ffffff" fill-opacity="1"><g transform="translate(195.311056, 216.116295)"><g><path d="M 8.738281 0 L 8.738281 -12.136719 L 17.480469 -12.136719 C 25.890625 -12.136719 29.367188 -17.148438 29.367188 -23.074219 L 29.367188 -23.113281 C 29.367188 -28.539062 26.261719 -33.59375 17.480469 -33.59375 L 2.277344 -33.59375 L 2.277344 0 Z M 8.738281 -27.546875 L 16.816406 -27.546875 C 20.628906 -27.546875 22.742188 -26.011719 22.742188 -22.65625 L 22.742188 -22.617188 C 22.742188 -19.304688 20.585938 -17.851562 16.816406 -17.851562 L 8.738281 -17.851562 Z M 8.738281 -27.546875 "/></g></g></g><g fill="#ffffff" fill-opacity="1"><g transform="translate(224.548992, 216.116295)"><g><path d="M 5.507812 -26.882812 C 7.332031 -26.882812 8.78125 -27.792969 8.78125 -29.78125 C 8.78125 -31.5625 7.457031 -32.640625 5.507812 -32.640625 C 3.605469 -32.640625 2.238281 -31.5625 2.238281 -29.78125 C 2.238281 -27.792969 3.726562 -26.882812 5.507812 -26.882812 Z M 8.824219 0 L 8.824219 -23.777344 L 2.238281 -23.777344 L 2.238281 0 Z M 8.824219 0 "/></g></g></g><g fill="#ffffff" fill-opacity="1"><g transform="translate(234.032436, 216.116295)"><g><path d="M 8.824219 0 L 8.824219 -18.433594 C 10.355469 -18.679688 11.847656 -18.847656 13.007812 -18.847656 C 16.070312 -18.847656 17.730469 -17.730469 17.730469 -14.746094 L 17.730469 0 L 24.273438 0 L 24.273438 -15.535156 C 24.273438 -22.65625 19.179688 -24.730469 13.296875 -24.730469 C 10.894531 -24.730469 6.214844 -24.191406 2.238281 -23.488281 L 2.238281 0 Z M 8.824219 0 "/></g></g></g><g fill="#ffffff" fill-opacity="1"><g transform="translate(259.004724, 216.116295)"><g><path d="M 20.421875 0 L 20.421875 -6.089844 L 15.824219 -6.089844 C 13.007812 -6.089844 11.722656 -7.167969 11.722656 -9.816406 L 11.722656 -17.730469 L 20.378906 -17.730469 L 20.378906 -23.777344 L 11.722656 -23.777344 L 11.722656 -31.066406 L 5.136719 -31.066406 L 5.136719 -23.777344 L 0.953125 -23.777344 L 0.953125 -17.730469 L 5.136719 -17.730469 L 5.136719 -7.746094 C 5.136719 -2.566406 7.207031 0 12.882812 0 Z M 20.421875 0 "/></g></g></g><g fill="#ffffff" fill-opacity="1"><g transform="translate(279.587128, 216.116295)"><g><path d="M 14.871094 0.664062 C 22.65625 0.664062 28.085938 -4.722656 28.085938 -12.054688 L 28.085938 -12.09375 C 28.085938 -19.386719 22.65625 -24.730469 14.871094 -24.730469 C 7.082031 -24.730469 1.699219 -19.386719 1.699219 -12.09375 L 1.699219 -12.054688 C 1.699219 -4.722656 7.125 0.664062 14.871094 0.664062 Z M 14.871094 -5.21875 C 10.933594 -5.21875 8.285156 -8.203125 8.285156 -12.054688 L 8.285156 -12.136719 C 8.285156 -15.949219 10.894531 -18.847656 14.871094 -18.847656 C 18.886719 -18.847656 21.457031 -15.949219 21.457031 -12.136719 L 21.457031 -12.054688 C 21.457031 -8.203125 18.847656 -5.21875 14.871094 -5.21875 Z M 14.871094 -5.21875 "/></g></g></g><g fill="#03fa6e" fill-opacity="1"><g transform="translate(168.018941, 245.299906)"><g><path d="M 6.367188 0 C 11.773438 0 14.464844 -2.980469 14.464844 -7.867188 L 14.464844 -7.90625 C 14.464844 -12.660156 11.792969 -15.601562 6.367188 -15.601562 L 1.039062 -15.601562 L 1.039062 0 Z M 4.078125 -12.773438 L 6.289062 -12.773438 C 9.597656 -12.773438 11.371094 -11.0625 11.371094 -7.90625 L 11.371094 -7.867188 C 11.371094 -4.578125 9.582031 -2.828125 6.289062 -2.828125 L 4.078125 -2.828125 Z M 4.078125 -12.773438 "/></g></g></g><g fill="#03fa6e" fill-opacity="1"><g transform="translate(182.518403, 245.299906)"><g><path d="M 12.214844 -5.15625 C 12.214844 -9.097656 10.0625 -11.484375 6.523438 -11.484375 C 3.019531 -11.484375 0.769531 -9.0625 0.769531 -5.617188 L 0.769531 -5.597656 C 0.769531 -2.097656 3.175781 0.289062 6.886719 0.289062 C 9.042969 0.289062 10.5625 -0.382812 11.675781 -1.078125 L 10.351562 -3.445312 C 9.542969 -2.867188 8.367188 -2.386719 7.023438 -2.386719 C 5.347656 -2.386719 4.25 -3.460938 3.945312 -4.886719 L 12.214844 -4.886719 Z M 6.503906 -9.003906 C 7.984375 -9.003906 8.867188 -8.042969 9.097656 -6.773438 L 3.964844 -6.773438 C 4.25 -8.042969 5.175781 -9.003906 6.503906 -9.003906 Z M 6.503906 -9.003906 "/></g></g></g><g fill="#03fa6e" fill-opacity="1"><g transform="translate(194.787125, 245.299906)"><g><path d="M 6.097656 -2.15625 L 3.425781 -11.042969 L 0.230469 -11.042969 L 4 0 L 8.195312 0 L 11.964844 -11.042969 L 8.773438 -11.042969 Z M 6.097656 -2.15625 "/></g></g></g></svg>